<svg width="105" height="105" viewBox="0 0 105 105" fill="none" xmlns="http://www.w3.org/2000/svg">
<path fill-rule="evenodd" clip-rule="evenodd" d="M52.6623 71.5297C72.4147 71.5297 88.4272 55.5173 88.4272 35.7649C88.4272 16.0125 72.4147 0 52.6623 0C32.9099 0 16.8974 16.0125 16.8974 35.7649C16.8974 55.5173 32.9099 71.5297 52.6623 71.5297ZM52.6623 61.3873C38.5114 61.3873 27.0398 49.9158 27.0398 35.7649C27.0398 21.614 38.5114 10.1424 52.6623 10.1424C66.8132 10.1424 78.2848 21.614 78.2848 35.7649C78.2848 49.9158 66.8132 61.3873 52.6623 61.3873ZM105 104.91H93.8604C91.7339 101.167 89.0583 97.6996 85.884 94.6245C77.03 86.0472 65.0214 81.2285 52.5 81.2285C39.9786 81.2285 27.97 86.0472 19.116 94.6245C15.9417 97.6996 13.2661 101.167 11.1396 104.91H8.51398e-06C2.83662 98.5733 6.89741 92.7451 12.0367 87.7664C22.7682 77.3702 37.3233 71.5297 52.5 71.5297C67.6767 71.5297 82.2318 77.3702 92.9633 87.7664C98.1026 92.7451 102.163 98.5733 105 104.91Z" fill="white"/>
</svg>
