<svg width="86" height="84" viewBox="0 0 86 84" fill="none" xmlns="http://www.w3.org/2000/svg">
<path fill-rule="evenodd" clip-rule="evenodd" d="M64.8502 57.5365C69.3408 51.5307 72 44.0759 72 36C72 16.1177 55.8823 0 36 0C16.1177 0 0 16.1177 0 36C0 55.8823 16.1177 72 36 72C44.923 72 53.0877 68.7537 59.3776 63.3776L80 84L85.6569 78.3431L64.8502 57.5365ZM36 64.4102C20.3095 64.4102 7.58977 51.6905 7.58977 36C7.58977 20.3095 20.3095 7.58977 36 7.58977C51.6905 7.58977 64.4102 20.3095 64.4102 36C64.4102 51.6905 51.6905 64.4102 36 64.4102Z" fill="#E30017"/>
</svg>
