<svg width="58" height="59" viewBox="0 0 58 59" fill="none" xmlns="http://www.w3.org/2000/svg">
<path d="M57.4021 29.701C57.4021 35.3776 55.7188 40.9266 52.5651 45.6465C49.4114 50.3663 44.9289 54.045 39.6844 56.2173C34.44 58.3896 28.6692 58.958 23.1017 57.8506C17.5343 56.7432 12.4202 54.0096 8.40634 49.9957C4.39243 45.9818 1.65892 40.8678 0.551482 35.3003C-0.555953 29.7329 0.0124228 23.9621 2.18474 18.7176C4.35705 13.4732 8.03573 8.99071 12.7556 5.837C17.4755 2.68329 23.0245 1 28.701 1L28.701 6.8992C24.1913 6.8992 19.7828 8.23651 16.033 10.742C12.2833 13.2475 9.36071 16.8087 7.63489 20.9752C5.90907 25.1416 5.45752 29.7263 6.33733 34.1495C7.21715 38.5726 9.38881 42.6355 12.5777 45.8244C15.7666 49.0133 19.8295 51.1849 24.2526 52.0647C28.6757 52.9445 33.2604 52.493 37.4269 50.7672C41.5934 49.0414 45.1546 46.1188 47.6601 42.3691C50.1656 38.6193 51.5029 34.2108 51.5029 29.701L57.4021 29.701Z" fill="white"/>
<path d="M15.5464 51.2268V28.6481C15.5464 26.6594 18.1336 25.8895 19.2209 27.5545L31.0059 45.6002C32.0932 47.2652 34.6804 46.4952 34.6804 44.5066V21.9278" stroke="white" stroke-width="6"/>
<path d="M28.701 3.98969L51.2798 3.98969C53.2684 3.98969 54.0384 6.57687 52.3734 7.66423L34.3277 19.4492C32.6627 20.5365 33.4326 23.1237 35.4213 23.1237L58 23.1237" stroke="white" stroke-width="6"/>
</svg>
