<svg width="96" height="93" viewBox="0 0 96 93" fill="none" xmlns="http://www.w3.org/2000/svg">
<path fill-rule="evenodd" clip-rule="evenodd" d="M62.8492 6.15076C66.7875 10.089 69 15.4305 69 21H87.8049H96L94.2222 29L80 93H16L1.77778 29L0 21H8.19515L34.1613 21L61.8387 21C61.8387 17.3298 60.3807 13.8098 57.7854 11.2146C55.1902 8.61931 51.6702 7.1613 48 7.1613C44.3298 7.1613 40.8098 8.6193 38.2146 11.2146C35.6193 13.8098 34.1613 17.3297 34.1613 21L27 21C27 15.4305 29.2125 10.089 33.1508 6.15076C37.089 2.21249 42.4305 0 48 0C53.5695 0 58.911 2.21249 62.8492 6.15076ZM22.4174 85L9.97293 29H86.0271L73.5826 85H22.4174Z" fill="white"/>
</svg>
