<svg width="128" height="128" viewBox="0 0 128 128" fill="none" xmlns="http://www.w3.org/2000/svg">
<path fill-rule="evenodd" clip-rule="evenodd" d="M78.8492 25.1508C82.7875 29.089 85 34.4305 85 40H105.854H112L110.667 46L96 112H32L17.3333 46L16 40H22.1464L48.7348 40L79.2652 40C79.2652 35.9514 77.6569 32.0687 74.7941 29.2059C71.9313 26.3431 68.0486 24.7348 64 24.7348C59.9514 24.7348 56.0687 26.3431 53.2059 29.2059C50.3431 32.0687 48.7348 35.9514 48.7348 40L43 40C43 34.4305 45.2125 29.089 49.1508 25.1508C53.089 21.2125 58.4305 19 64 19C69.5695 19 74.911 21.2125 78.8492 25.1508ZM36.813 106L23.4797 46H104.52L91.187 106H36.813Z" fill="#E30017"/>
</svg>
