<svg width="33" height="28" viewBox="0 0 33 28" fill="none" xmlns="http://www.w3.org/2000/svg">
<g clip-path="url(#clip0_6_571)">
<path d="M24.5 8.95998C19.5 11.37 11.02 17.37 11.02 17.37C12.6802 18.2292 14.4138 18.9387 16.2 19.49C19.2 20.4 21.99 20.88 23.42 20.56C26.65 19.84 30.11 12.88 31.23 9.79998C31.23 9.79998 26.46 11.8 24.96 12.5C23.65 13.1 18.68 15.5 18.68 15.5L26.5 13.15C26.36 13.47 24.3 18.1 21.67 18.62C19.04 19.14 14.09 17.23 14.09 17.23C19.5537 13.6519 25.3916 10.681 31.5 8.36998C31.767 8.17645 31.9929 7.93182 32.1645 7.65029C32.3362 7.36876 32.4502 7.05594 32.5 6.72998C29.7262 7.01436 27.021 7.76845 24.5 8.95998Z" fill="#999999"/>
<path d="M9.98999 17.6899C9.65999 17.1099 10.07 16.3099 12.63 14.4299C14.93 12.7399 23.24 5.78994 31.18 3.93994C27.7691 3.60093 24.3252 3.99647 21.08 5.09994C18.96 5.75994 15.83 8.71994 10.08 14.2899C9.30999 14.7199 6.52999 13.1099 4.92999 12.2899C4.92999 12.2899 7.57999 16.5099 8.50999 17.7699C9.59195 19.0948 10.9593 20.1579 12.51 20.8799C11.5718 19.898 10.7281 18.83 9.98999 17.6899Z" fill="#999999"/>
<path d="M0.5 11.2998C0.5 11.2998 1.79 14.7398 2.64 15.2998C4.0381 16.1313 5.56091 16.7323 7.15 17.0798C7.15 17.0798 5.56 15.7898 3.92 14.3698C2.28 12.9498 0.5 11.2998 0.5 11.2998Z" fill="#999999"/>
</g>
<defs>
<clipPath id="clip0_6_571">
<rect width="32" height="24" fill="white" transform="translate(0.5 0.369873)"/>
</clipPath>
</defs>
</svg>
